#N canvas -9 -9 1920 976 12;
#X obj 210 215 mod 8;
#X obj 213 112 r clic;
#X obj 212 148 float;
#X floatatom 212 172 5 0 0 0 - - -;
#X obj 66 92 metro 125;
#X obj 66 116 s clic;
#X obj 33 46 tgl 30 0 empty empty empty 17 7 0 10 -257985 -1 -1 0 1
;
#X floatatom 152 51 10 0 0 0 - - -;
#X obj 281 155 + 1;
#X obj 206 271 hradio 50 1 0 8 empty empty empty 0 -8 0 10 -258113
-1 -1 6;
#X floatatom 292 398 5 0 0 0 - - -;
#X obj 292 421 float;
#X floatatom 339 399 5 0 0 0 - - -;
#X obj 339 422 float;
#X floatatom 388 398 5 0 0 0 - - -;
#X obj 388 421 float;
#X floatatom 439 401 5 0 0 0 - - -;
#X obj 439 424 float;
#X floatatom 487 402 5 0 0 0 - - -;
#X obj 487 425 float;
#X floatatom 246 398 5 0 0 0 - - -;
#X obj 246 421 float;
#X floatatom 533 402 5 0 0 0 - - -;
#X obj 533 425 float;
#X floatatom 583 401 5 0 0 0 - - -;
#X obj 583 424 float;
#X obj 336 350 select 0 1 2 3 4 5 6;
#X obj 45 225 random 600;
#X obj 52 196 bng 15 250 50 0 empty empty empty 17 7 0 10 -262144 -1
-1;
#X obj 46 158 r clic;
#X obj 50 286 random 400;
#X obj 43 347 random 650;
#X obj 38 406 random 200;
#X obj 44 467 random 525;
#X obj 46 525 random 400;
#X obj 46 578 random 900;
#X obj 43 641 random 670;
#X obj 393 798 osc~;
#X obj 393 822 *~;
#X obj 392 929 dac~;
#X obj 497 784 hsl 128 40 0 1 0 0 empty empty volume -2 -8 0 10 -4032
-1 -1 0 1;
#X obj 122 255 + 50;
#X obj 129 319 + 50;
#X obj 121 376 + 50;
#X obj 116 429 + 50;
#X obj 116 495 + 50;
#X obj 119 551 + 50;
#X obj 124 615 + 50;
#X obj 119 665 + 50;
#X obj 441 734 +~;
#X floatatom 568 616 5 0 0 1 MODULATION - -;
#X obj 558 722 *~;
#X obj 396 540 hsl 128 15 0 900 0 0 empty empty frequency -2 -8 0 10
-4034 -1 -1 10964 1;
#X obj 664 448 vsl 15 128 0 50 0 0 empty empty FM_Ratio 0 -9 0 10 -162280
-1 -1 100 1;
#X floatatom 610 694 5 0 0 0 - - -;
#X obj 568 592 *;
#X obj 568 639 phasor~;
#X msg 679 825 open rec.wav \, start;
#X obj 573 923 writesf~ 2;
#X msg 815 868 stop;
#X connect 0 0 9 0;
#X connect 1 0 2 0;
#X connect 2 0 3 0;
#X connect 2 0 8 0;
#X connect 3 0 0 0;
#X connect 4 0 5 0;
#X connect 6 0 4 0;
#X connect 7 0 4 1;
#X connect 8 0 2 1;
#X connect 9 0 26 0;
#X connect 10 0 11 0;
#X connect 11 0 52 0;
#X connect 12 0 13 0;
#X connect 13 0 52 0;
#X connect 14 0 15 0;
#X connect 15 0 52 0;
#X connect 16 0 17 0;
#X connect 17 0 52 0;
#X connect 18 0 19 0;
#X connect 19 0 52 0;
#X connect 20 0 21 0;
#X connect 21 0 52 0;
#X connect 22 0 23 0;
#X connect 23 0 52 0;
#X connect 24 0 25 0;
#X connect 25 0 52 0;
#X connect 26 0 21 0;
#X connect 26 1 11 0;
#X connect 26 2 13 0;
#X connect 26 3 15 0;
#X connect 26 4 17 0;
#X connect 26 5 19 0;
#X connect 26 6 23 0;
#X connect 26 7 25 0;
#X connect 27 0 41 0;
#X connect 28 0 27 0;
#X connect 28 0 30 0;
#X connect 28 0 31 0;
#X connect 28 0 32 0;
#X connect 28 0 33 0;
#X connect 28 0 34 0;
#X connect 28 0 35 0;
#X connect 28 0 36 0;
#X connect 29 0 28 0;
#X connect 30 0 42 0;
#X connect 31 0 43 0;
#X connect 32 0 44 0;
#X connect 33 0 45 0;
#X connect 34 0 46 0;
#X connect 35 0 47 0;
#X connect 36 0 48 0;
#X connect 37 0 38 0;
#X connect 38 0 39 0;
#X connect 38 0 39 1;
#X connect 38 0 58 0;
#X connect 38 0 58 1;
#X connect 40 0 38 1;
#X connect 41 0 20 0;
#X connect 42 0 10 0;
#X connect 43 0 12 0;
#X connect 44 0 14 0;
#X connect 45 0 16 0;
#X connect 46 0 18 0;
#X connect 47 0 22 0;
#X connect 48 0 24 0;
#X connect 49 0 37 0;
#X connect 50 0 56 0;
#X connect 51 0 49 0;
#X connect 52 0 49 1;
#X connect 52 0 55 0;
#X connect 53 0 55 1;
#X connect 54 0 51 1;
#X connect 55 0 50 0;
#X connect 56 0 51 0;
#X connect 57 0 58 0;
#X connect 59 0 58 0;
